<?xml version="1.0" encoding="UTF-8" standalone="no"?>
<!-- Generator: Adobe Illustrator 15.0.2, SVG Export Plug-In . SVG Version: 6.00 Build 0)  -->

<svg
   xmlns:dc="http://purl.org/dc/elements/1.1/"
   xmlns:cc="http://creativecommons.org/ns#"
   xmlns:rdf="http://www.w3.org/1999/02/22-rdf-syntax-ns#"
   xmlns:svg="http://www.w3.org/2000/svg"
   xmlns="http://www.w3.org/2000/svg"
   xmlns:sodipodi="http://sodipodi.sourceforge.net/DTD/sodipodi-0.dtd"
   xmlns:inkscape="http://www.inkscape.org/namespaces/inkscape"
   version="1.1"
   id="Layer_1"
   x="0px"
   y="0px"
   width="512px"
   height="512px"
   viewBox="0 0 512 512"
   enable-background="new 0 0 512 512"
   xml:space="preserve"
   inkscape:version="0.91 r13725"
   sodipodi:docname="menu_icon_green.svg"><metadata
   id="metadata3345"><rdf:RDF><cc:Work
       rdf:about=""><dc:format>image/svg+xml</dc:format><dc:type
         rdf:resource="http://purl.org/dc/dcmitype/StillImage" /><dc:title></dc:title></cc:Work></rdf:RDF></metadata><defs
   id="defs3343" /><sodipodi:namedview
   pagecolor="#ffffff"
   bordercolor="#666666"
   borderopacity="1"
   objecttolerance="10"
   gridtolerance="10"
   guidetolerance="10"
   inkscape:pageopacity="0"
   inkscape:pageshadow="2"
   inkscape:window-width="1371"
   inkscape:window-height="894"
   id="namedview3341"
   showgrid="false"
   inkscape:zoom="1.3147767"
   inkscape:cx="316.09167"
   inkscape:cy="261.39609"
   inkscape:window-x="0"
   inkscape:window-y="0"
   inkscape:window-maximized="0"
   inkscape:current-layer="Layer_1" />
<g
   id="g3337">
	<path
   d="M256,0C114.616,0,0,114.616,0,256s114.616,256,256,256s256-114.616,256-256S397.384,0,256,0z M392.533,375.467H119.467   c-9.417,0-17.066-7.65-17.066-17.066c0-9.417,7.649-17.067,17.066-17.067h273.066c9.417,0,17.066,7.65,17.066,17.067   C409.6,367.816,401.95,375.467,392.533,375.467z M392.533,273.066H119.467c-9.417,0-17.066-7.649-17.066-17.066   s7.649-17.066,17.066-17.066h273.066c9.417,0,17.066,7.649,17.066,17.066S401.95,273.066,392.533,273.066z M392.533,170.667   H119.467c-9.417,0-17.066-7.65-17.066-17.067c0-9.416,7.649-17.066,17.066-17.066h273.066c9.417,0,17.066,7.65,17.066,17.066   C409.6,163.017,401.95,170.667,392.533,170.667z"
   id="path3339" />
</g>
<path
   style="fill:#11f508;fill-opacity:1"
   d="M 237.74136,511.05521 C 191.9051,507.44151 149.31452,492.54769 112.00806,467.08656 54.084329,427.55444 14.741503,365.72827 3.7254589,296.92341 -0.76457099,268.87924 -0.51791542,238.23806 4.4202626,210.61034 12.335565,166.32643 32.236814,124.54245 62.200478,89.296957 69.421751,80.802754 86.201662,64.547936 95.361856,57.173286 131.95441,27.71352 174.64893,9.3058514 222.09942,2.5305961 233.78285,0.86236864 267.11341,0.22374306 279.63127,1.4282653 353.71049,8.556493 420.73082,47.033933 463.75405,107.13609 c 25.80424,36.04777 41.1394,76.27499 46.54941,122.10859 1.44942,12.27948 1.2233,44.67731 -0.3975,56.95376 -6.62191,50.15613 -24.2004,91.58096 -55.55158,130.91084 -8.00594,10.04341 -27.65065,29.6089 -38.11214,37.95847 -38.72463,30.90702 -84.06577,49.65159 -133.48275,55.18336 -10.03671,1.12351 -35.25356,1.57393 -45.01813,0.8041 z m 161.768,-136.82685 c 11.11052,-5.09672 13.77488,-19.42552 5.20746,-28.00551 -6.0076,-6.01641 5.74063,-5.5971 -150.51831,-5.3723 -134.0987,0.19293 -139.24471,0.25164 -141.81016,1.61804 -6.54522,3.4861 -10.12483,9.05385 -10.13481,15.76377 -0.011,7.40832 4.44048,14.00284 11.07709,16.40973 1.87378,0.67957 36.79789,0.90963 142.80837,0.94072 134.5558,0.0395 140.45316,-0.0163 143.37036,-1.35445 z m 0.57136,-102.64934 c 13.79695,-6.79448 12.59167,-26.56893 -1.9519,-32.02393 -3.18888,-1.19609 -280.32807,-1.11849 -284.32697,0.0796 -4.06412,1.21764 -8.58013,5.29255 -10.17114,9.17768 -4.301975,10.50507 1.65696,21.99566 12.56057,24.2205 1.46413,0.29875 65.12513,0.49425 141.46889,0.43447 l 138.80685,-0.10872 3.6137,-1.77961 z m -2.36516,-101.40183 c 1.62042,-0.48548 4.35915,-2.09214 6.08609,-3.57034 9.41527,-8.05911 7.62772,-22.49026 -3.53171,-28.51193 l -3.04234,-1.64167 -139.91746,-0.19817 c -155.18669,-0.21979 -144.49624,-0.55696 -149.77713,4.72393 -9.299023,9.29903 -6.02728,24.63765 6.18482,28.99572 3.90234,1.3926 279.36993,1.58898 283.99773,0.20246 z"
   id="path3347"
   inkscape:connector-curvature="0" /></svg>